<?xml version="1.0" encoding="UTF-8"?>
<svg version="1.1" xmlns="http://www.w3.org/2000/svg" width="490" height="490">
<path d="M0 0 C28.35265318 -0.12485079 56.66091436 0.08724549 85 1 C91.25301053 14.00915196 96.87075611 27.27460445 102.5 40.5625 C103.51232928 42.94640996 104.52494897 45.33019662 105.5378418 47.71386719 C107.37614942 52.04061365 109.21377473 56.36764707 111.05014706 60.69521523 C115.8122217 71.91737468 120.58710686 83.13407384 125.36425781 94.349823 C126.33295607 96.62412874 127.30154258 98.89848209 128.27001953 101.17288208 C134.84612053 116.61608161 141.44331527 132.05005043 148.06201172 147.47503662 C154.83640274 163.26470443 161.57860358 179.06803065 168.3125 194.875 C168.81144775 196.04579102 169.31039551 197.21658203 169.82446289 198.42285156 C171.25461829 201.77906323 172.68407308 205.13557237 174.11328125 208.4921875 C174.53337967 209.47798798 174.95347809 210.46378845 175.38630676 211.47946167 C178.2912861 218.30570363 181.15516074 225.14848613 184 232 C189.09805431 221.23042197 193.94842302 210.36921945 198.6875 199.4375 C199.42453682 197.74153678 200.16176558 196.04565697 200.89916992 194.34985352 C202.46217999 190.75453695 204.02402939 187.15871945 205.58496094 183.5625 C208.00455093 177.98844707 210.42768959 172.4159416 212.8515625 166.84375 C216.20025693 159.14498225 219.54795525 151.4457826 222.89453125 143.74609375 C226.26647185 135.98808327 229.63878795 128.23023628 233.01171875 120.47265625 C233.62976631 119.05117027 233.62976631 119.05117027 234.26029968 117.60096741 C236.3355082 112.82811216 238.41077747 108.05528334 240.48608398 103.2824707 C244.29284146 94.52748392 248.099176 85.77231427 251.90370178 77.01635742 C259.98348275 58.42110052 268.0644084 39.82638826 276.1875 21.25 C276.48444763 20.57052307 276.78139526 19.89104614 277.08734131 19.190979 C277.90528038 17.31976379 278.72409762 15.44893252 279.54296875 13.578125 C280.2239563 12.02206543 280.2239563 12.02206543 280.91870117 10.43457031 C281.58150916 8.9422422 282.26974557 7.46050885 283 6 C308.41 6 333.82 6 360 6 C358.15429633 11.53711101 356.38422523 16.6827391 354.09375 21.98828125 C353.81718567 22.63169464 353.54062134 23.27510803 353.25567627 23.9380188 C352.340627 26.06437787 351.42034042 28.18842634 350.5 30.3125 C349.83724908 31.84955453 349.1748231 33.3867492 348.51269531 34.92407227 C346.72006565 39.08360526 344.92284655 43.24114078 343.12475586 47.39831543 C341.23158423 51.77743058 339.34261221 56.15835668 337.453125 60.5390625 C333.86019159 68.86724679 330.26335746 77.19374043 326.66491699 85.51954651 C322.66900357 94.76514642 318.6760545 104.01202515 314.68347168 113.25906372 C312.70577682 117.83943153 310.72787794 122.41971124 308.75 127 C307.95833236 128.83333291 307.16666569 130.66666625 306.375 132.5 C282.62500001 187.49999997 282.62500001 187.49999997 281.43754578 190.24989319 C280.64572574 192.08358222 279.85390649 193.9172716 279.06208801 195.7509613 C277.08527425 200.32885516 275.10844703 204.9067432 273.1315918 209.48461914 C269.13560431 218.73831423 265.13985551 227.99211229 261.14453125 237.24609375 C253.85603516 254.12750322 246.56696618 271.00866739 239.27133179 287.88699341 C238.60668149 289.42476306 237.94214505 290.96258193 237.27774048 292.50045776 C236.6573757 293.93632818 236.03675058 295.37208615 235.41584778 296.807724 C234.82295406 298.17953879 234.2311197 299.55181199 233.64042664 300.92457581 C232.12484188 304.4388684 230.58067833 307.93702655 228.99414062 311.41992188 C228.66798767 312.14322693 228.34183472 312.86653198 228.00579834 313.61175537 C227.38484835 314.98625589 226.75659505 316.35748994 226.11968994 317.72467041 C224.38588436 321.58140593 224 323.60920648 224 328 C196.28 328 168.56 328 140 328 C127.74522081 299.84008186 115.52244424 271.66716731 103.35888672 243.46777344 C99.80454767 235.22812745 96.24636573 226.99014083 92.68850708 218.75201416 C90.70885051 214.16807603 88.72943747 209.58403275 86.75 205 C85.9583345 203.16666616 85.16666784 201.33333283 84.375 199.5 C41.625 100.5 41.625 100.5 40.43769836 97.7504425 C39.64538685 95.91562709 38.85305895 94.08081875 38.06071472 92.24601746 C36.09128036 87.68541764 34.12212347 83.12469843 32.15356445 78.5637207 C28.4755291 70.0428393 24.79478138 61.52316047 21.10458374 53.00753784 C19.37921998 49.02558022 17.65537599 45.04296549 15.93164062 41.06030273 C15.11680367 39.17879047 14.30123863 37.29759332 13.48486328 35.41674805 C9.73757863 26.78296036 6.00309435 18.14459406 2.45703125 9.42578125 C1.97854736 8.25055908 1.50006348 7.07533691 1.00708008 5.86450195 C0 3 0 3 0 0 Z " fill="#071C98" transform="translate(65,82)"/>
<path d="M0 0 C25.41 0 50.82 0 77 0 C75.15429633 5.53711101 73.38422523 10.6827391 71.09375 15.98828125 C70.81718567 16.63169464 70.54062134 17.27510803 70.25567627 17.9380188 C69.340627 20.06437787 68.42034042 22.18842634 67.5 24.3125 C66.83724908 25.84955453 66.1748231 27.3867492 65.51269531 28.92407227 C63.72006565 33.08360526 61.92284655 37.24114078 60.12475586 41.39831543 C58.23158423 45.77743058 56.34261221 50.15835668 54.453125 54.5390625 C50.86019159 62.86724679 47.26335746 71.19374043 43.66491699 79.51954651 C39.66900357 88.76514642 35.6760545 98.01202515 31.68347168 107.25906372 C29.70577682 111.83943153 27.72787794 116.41971124 25.75 121 C24.95833236 122.83333291 24.16666569 124.66666625 23.375 126.5 C-0.37499999 181.49999998 -0.37499999 181.49999998 -1.56245422 184.24989319 C-2.35427426 186.08358222 -3.14609351 187.9172716 -3.93791199 189.7509613 C-5.91472575 194.32885516 -7.89155297 198.9067432 -9.8684082 203.48461914 C-13.86439569 212.73831423 -17.86014449 221.99211229 -21.85546875 231.24609375 C-29.14396484 248.12750322 -36.43303382 265.00866739 -43.72866821 281.88699341 C-44.39331851 283.42476306 -45.05785495 284.96258193 -45.72225952 286.50045776 C-47.22395719 289.97622451 -48.72765225 293.4510843 -50.23632812 296.92382812 C-51.48344 299.79690803 -52.71314295 302.67687247 -53.93554688 305.56054688 C-54.56635305 307.03517901 -55.19721074 308.50978911 -55.828125 309.984375 C-56.26194489 311.01984467 -56.26194489 311.01984467 -56.70452881 312.07623291 C-58.77405136 316.88702568 -58.77405136 316.88702568 -61 318 C-65.73787527 307.20882414 -70.42425258 296.39684782 -75.0625 285.5625 C-75.37826996 284.82562958 -75.69403992 284.08875916 -76.01937866 283.32955933 C-79.70141383 274.73714762 -83.36994608 266.13915443 -87.015625 257.53125 C-87.49816994 256.39211403 -87.49816994 256.39211403 -87.99046326 255.22996521 C-89.53170478 251.59050359 -91.07105419 247.9502566 -92.60766602 244.30883789 C-93.16160082 242.9988521 -93.71555484 241.68887444 -94.26953125 240.37890625 C-94.75010986 239.2401001 -95.23068848 238.10129395 -95.72583008 236.92797852 C-96.89035257 234.08779587 -96.89035257 234.08779587 -98.2331543 231.91381836 C-99.60526137 228.48944799 -98.27462117 225.71924593 -97.01049805 222.40844727 C-96.59840088 221.47057373 -96.18630371 220.5327002 -95.76171875 219.56640625 C-95.28210693 218.46748047 -94.80249512 217.36855469 -94.30834961 216.23632812 C-93.7680815 215.01171209 -93.22779768 213.78710299 -92.6875 212.5625 C-92.11218566 211.24827698 -91.53741554 209.93381562 -90.96313477 208.61914062 C-89.68390947 205.69194378 -88.40220156 202.76584953 -87.11914062 199.84033203 C-84.8660063 194.69880395 -82.62726383 189.55106519 -80.390625 184.40234375 C-79.99120193 183.48288467 -79.59177887 182.5634256 -79.18025208 181.61610413 C-78.35431823 179.71469469 -77.52841638 177.81327136 -76.70254517 175.91183472 C-74.55184283 170.9614267 -72.39890244 166.01199229 -70.24609375 161.0625 C-65.57753618 150.32832875 -60.91006057 139.59368737 -56.24295044 128.85888672 C-54.16201634 124.07256968 -52.08100411 119.2862866 -50 114.5 C-49.16666629 112.5833335 -48.33333296 110.66666683 -47.5 108.75 C-42.5 97.25 -42.5 97.25 -41.25022888 94.37553406 C-40.41612517 92.45709043 -39.58202891 90.53864357 -38.74794006 88.62019348 C-36.67645429 83.85568781 -34.60484297 79.09123681 -32.53295898 74.3269043 C-28.64158977 65.37826889 -24.75151118 56.42907852 -20.8656311 47.47805786 C-19.03825177 43.26894009 -17.21019153 39.0601182 -15.38208008 34.85131836 C-14.5142272 32.85276799 -13.64670473 30.8540741 -12.77954102 28.85522461 C-11.57392739 26.07629111 -10.3671552 23.29786327 -9.16015625 20.51953125 C-8.81203384 19.71626907 -8.46391144 18.9130069 -8.10523987 18.08540344 C-5.46981021 12.02361927 -2.73634248 6.01995345 0 0 Z " fill="#3880F8" transform="translate(348,88)"/>
</svg>
